<svg xmlns="http://www.w3.org/2000/svg" fill="none" viewBox="0 0 24 24"><path fill="#7f7f7f" d="M18.29 2.89A36 36 0 0 0 14 2.75a.75.75 0 0 1 0-1.5h.06c1.83 0 3.29 0 4.43.15 1.17.16 2.12.5 2.87 1.24a4 4 0 0 1 1.23 2.34c.16.9.16 2.12.16 3.92V9a.75.75 0 0 1-1.5 0c0-1.92 0-3-.14-3.76a2.52 2.52 0 0 0-.81-1.54c-.43-.42-1-.67-2.01-.81ZM2.75 15a.75.75 0 0 0-1.5 0v.1c0 1.8 0 3.01.16 3.92a4 4 0 0 0 1.23 2.34c.75.75 1.7 1.08 2.87 1.24 1.14.15 2.6.15 4.43.15H10a.75.75 0 0 0 0-1.5c-1.9 0-3.26 0-4.29-.14-1-.13-1.58-.39-2-.81-.5-.49-.7-.87-.82-1.54-.14-.76-.14-1.84-.14-3.76ZM22.75 15a.75.75 0 0 0-1.5 0c0 1.92 0 3-.14 3.76a2.52 2.52 0 0 1-.81 1.54c-.43.42-1 .68-2.01.81-1.03.14-2.38.14-4.29.14a.75.75 0 0 0 0 1.5h.06c1.83 0 3.29 0 4.43-.15a4.71 4.71 0 0 0 2.87-1.24 4 4 0 0 0 1.23-2.34c.16-.9.16-2.12.16-3.92V15ZM10 1.25h-.06c-1.83 0-3.29 0-4.43.15a4.71 4.71 0 0 0-2.87 1.24 4 4 0 0 0-1.23 2.34c-.16.9-.16 2.12-.16 3.92V9a.75.75 0 1 0 1.5 0c0-1.92 0-3 .14-3.76.11-.67.32-1.05.81-1.54.43-.42 1-.67 2.01-.81A36 36 0 0 1 10 2.75a.75.75 0 0 0 0-1.5Z"/><path fill="#000" fill-rule="evenodd" d="M12 9.25a2.75 2.75 0 1 0 0 5.5 2.75 2.75 0 0 0 0-5.5ZM10.75 12a1.25 1.25 0 1 1 2.5 0 1.25 1.25 0 0 1-2.5 0Z" clip-rule="evenodd"/><path fill="#000" fill-rule="evenodd" d="M5.32 9.45A8.72 8.72 0 0 1 12 6.25c3.22 0 5.4 1.73 6.68 3.2l.03.04c.27.31.55.63.74 1.02.21.43.3.9.3 1.49 0 .6-.09 1.06-.3 1.49-.2.38-.47.7-.74 1.02l-.03.04a8.72 8.72 0 0 1-6.68 3.2 8.72 8.72 0 0 1-6.68-3.2l-.03-.04c-.27-.31-.55-.63-.74-1.02-.21-.43-.3-.9-.3-1.49 0-.6.09-1.06.3-1.49.2-.38.47-.7.74-1.02l.03-.04ZM12 7.75a7.22 7.22 0 0 0-5.54 2.68c-.31.36-.47.55-.56.75-.09.17-.15.39-.15.82 0 .43.06.65.15.82.1.2.25.39.56.75A7.22 7.22 0 0 0 12 16.25c2.63 0 4.43-1.4 5.54-2.68.31-.36.47-.55.56-.75.09-.17.15-.39.15-.82 0-.43-.06-.65-.15-.82-.1-.2-.25-.39-.56-.75A7.22 7.22 0 0 0 12 7.75Z" clip-rule="evenodd"/></svg>